:FULLY-SPECIFIED
:FORCE-ALL-JOINTS-BE-3DOF
:DEGREES
1
root 7.46593 15.9937 -36.7321 7.11356 1.31487 -3.66776
lfemur -40.6897 6.42258 -16.3516
ltibia 43.9106 0 0
lfoot -14.6186 8.34667 0
ltoes -11.8487 0 0
rfemur -9.89801 4.72659 30.1099
rtibia 24.1198 0 0
rfoot 0 0 0
rtoes 0 0 0
lowerback -4.29912 0.189404 0.939401
upperback -1.51886 0.185188 2.55702
thorax 0.845091 0.0960327 2.10705
lowerneck -18.6579 -5.17414 -13.3376
upperneck 13.6797 -6.63107 16.9236
head 8.38994 -2.28192 7.17028
lclavicle 6.33626e-15 1.59028e-14 0
lhumerus -35.9267 -2.97855 86.2544
lradius 27.4056 0 0
lwrist 7.30557 0 0
lhand -13.3003 -23.0211 0
lfingers 7.12502 0 0
lthumb 12.8038 6.56624 0
rclavicle 6.33626e-15 1.59028e-14 0
rhumerus -38.7688 17.4551 -84.1031
rradius 56.1989 0 0
rwrist -28.5696 0 0
rhand -33.2015 -25.7513 0
rfingers 7.12502 0 0
rthumb -6.4087 -55.6344 0
2
root 7.47265 15.9928 -36.6057 7.07543 1.33147 -3.55764
lfemur -40.7546 6.39236 -16.5899
ltibia 42.9455 -0 0
lfoot -14.5173 7.89505 -0.00131727
ltoes -11.6285 0 0
rfemur -9.77416 4.81778 30.0299
rtibia 24.2616 -0 0
rfoot 0 0 0
rtoes 0 0 0
lowerback -4.27291 0.16449 0.837308
upperback -1.54696 0.158362 2.51413
thorax 0.80195 0.0826919 2.11656
lowerneck -18.4229 -5.08362 -13.4127
upperneck 13.569 -6.51981 17.043
head 8.29992 -2.23477 7.23848
lclavicle 5.41067e-15 9.24352e-15 0
lhumerus -35.8709 -2.86972 86.2923
lradius 27.2755 -0 0
lwrist 7.24555 0 0
lhand -13.4918 -23.2315 -0.00604793
lfingers 7.12502 0 0
lthumb 12.6196 6.37436 -0.00404633
rclavicle 5.41067e-15 9.24352e-15 0
rhumerus -38.7629 17.5335 -84.1052
rradius 56.4856 -0 0
rwrist -29.4946 0 0
rhand -32.8467 -26.3579 -0.00866083
rfingers 7.12502 0 0
rthumb -6.06612 -56.2499 -0.00848326
3
root 7.47937 15.992 -36.4792 7.03078 1.17337 -3.49702
lfemur -40.7881 6.14878 -16.5554
ltibia 41.1993 -0 0
lfoot -14.415 7.66067 -0.0014065
ltoes -11.5751 0 0
rfemur -9.15648 4.95775 29.9764
rtibia 23.9597 -0 0
rfoot 0 0 0
rtoes 0 0 0
lowerback -4.31845 0.169614 0.76196
upperback -1.55285 0.167808 2.48366
thorax 0.82072 0.0873502 2.12747
lowerneck -18.2825 -5.00087 -13.3938
upperneck 13.5681 -6.42919 17.0638
head 8.25916 -2.19527 7.25521
lclavicle 4.48508e-15 2.58423e-15 0
lhumerus -35.9564 -2.96274 86.4493
lradius 27.2794 -0 0
lwrist 7.18504 0 0
lhand -13.407 -23.3713 -0.00920699
lfingers 7.12502 0 0
lthumb 12.7015 6.23199 -0.0064526
rclavicle 4.48508e-15 2.58423e-15 0
rhumerus -38.8104 17.6621 -84.232
rradius 56.9667 -0 0
rwrist -30.5476 0 0
rhand -32.4638 -27.0373 -0.0140728
rfingers 7.12502 0 0
rthumb -5.69649 -56.9387 -0.0137805
4
root 7.48609 15.9911 -36.3528 6.98355 0.892041 -3.47688
lfemur -40.7974 5.75767 -16.3169
ltibia 38.9591 -0 0
lfoot -14.3175 7.603 -0.000921048
ltoes -11.6504 0 0
rfemur -8.19969 5.12718 29.948
rtibia 23.3393 -0 0
rfoot 0 0 0
rtoes 0 0 0
lowerback -4.41569 0.19703 0.71087
upperback -1.54169 0.204121 2.4642
thorax 0.885185 0.105321 2.13884
lowerneck -18.2209 -4.92875 -13.3051
upperneck 13.6498 -6.35915 17.0092
head 8.25775 -2.16376 7.23223
lclavicle 3.55949e-15 -4.07505e-15 0
lhumerus -36.1447 -3.20237 86.6882
lradius 27.3841 -0 0
lwrist 7.12745 0 0
lhand -13.1185 -23.4501 -0.00931559
lfingers 7.12502 0 0
lthumb 12.9796 6.13473 -0.00677932
rclavicle 3.55949e-15 -4.07505e-15 0
rhumerus -38.8963 17.8213 -84.4463
rradius 57.5683 -0 0
rwrist -31.6398 0 0
rhand -32.0807 -27.7343 -0.0150839
rfingers 7.12502 0 0
rthumb -5.32663 -57.6453 -0.0147675
